<?xml version="1.0" encoding="utf-8"?>
<!-- Generator: Adobe Illustrator 28.2.0, SVG Export Plug-In . SVG Version: 6.00 Build 0)  -->
<svg version="1.1" id="svelte" xmlns="http://www.w3.org/2000/svg" xmlns:xlink="http://www.w3.org/1999/xlink" x="0px" y="0px"
	 viewBox="0 0 140 140" style="enable-background:new 0 0 140 140;" xml:space="preserve">
<g>
	<defs>
		<path id="SVGID_1_" d="M126.1,70.9c-0.2-0.6-1.1-3.5-3.9-5.5c-1.9-1.4-3.8-1.8-5.4-2c-4-0.7-5,0.5-7.8-0.7c-1.7-0.7-3.2-2-3.6-2.3
			c-0.7-0.6-0.9-0.8-2.2-2.2c-2.7-2.7-3.4-3.1-5.2-5.2c-1.4-1.6-1.8-2.3-1.9-2.6c-0.3-0.5-0.9-1.7-1.2-3.7c-0.5-3.2,0.4-3.8,0-6.5
			c0,0,0,0,0,0c0,0,0,0,0,0c-0.1-0.3-0.1-0.6-0.2-0.9c-0.2-0.8-0.5-1.6-0.9-2.4c-0.1-0.2-0.2-0.3-0.3-0.5c-0.1-0.1-0.1-0.2-0.2-0.3
			c-0.1-0.1-0.1-0.2-0.1-0.2c-0.1-0.1-0.3-0.4-0.6-0.8c0,0,0,0,0,0c-0.7-0.9-2-2.3-3.7-2.9c0,0,0,0,0,0c-2.6-1.3-5.9-1.4-9.3,0.2
			c-4.1,2.5-5.3,5.1-5.4,8.1c0,0.4-0.1,0.8-0.1,1.2c0,1.4,0.3,2.8,0.8,4c0.3,1.4,0.7,3,1,4.6c0.3,1.7,0.5,3.4,0.7,5.1
			c0,0.3,0,0.5,0,0.8c0,0,0,0.1,0,0.2c0,0.2,0,0.3,0,0.4c0,0,0,0.1,0,0.3c0,0.3,0,0.7,0,0.8c0,0.9-0.2,2-0.2,2
			c-0.1,0.5-0.2,1.1-0.4,2.2c-0.2,1.1-0.3,1.7-0.5,2.5c-0.3,1.6-0.5,2.6-0.9,3.8c-0.3,1.1-0.7,2-0.9,2.5c-0.4,1-0.7,1.7-1.1,2.4
			c-0.5,1.1-0.8,1.6-1.1,2.2c-0.4,0.6-0.9,1.4-1.8,2.2c-0.6,0.5-1.1,0.8-1.6,1.1c-0.2,0.1-0.9,0.5-1.7,0.8c-0.3,0.1-0.6,0.3-0.9,0.4
			c-0.4,0.1-0.8,0.3-1.3,0.4c-0.9,0.2-1.8,0.2-2.8,0.2c-0.1,0-0.3,0-0.4,0c-0.5-0.1-0.9-0.1-1.1-0.2c-0.1,0-0.5-0.1-1.1-0.3
			c-0.1,0-0.9-0.2-1.6-0.6c-0.8-0.4-1.6-0.8-2.5-1.5c-1.1-0.8-1.9-1.5-3.6-3.1c-0.4-0.4-0.4-0.4-2.4-2.2c-2-1.8-1.9-1.8-1.9-1.8
			c-1.1-1.1-3-2.9-3.9-5.8c-0.4-1.4-0.5-2.6-0.5-3.2c0,0,0,0,0-0.1c0-0.3,0-0.5,0.1-0.8c0.1-0.7,0.1-1.4,0.1-2.2
			c0-0.4,0.1-0.8,0.1-1.4c0-0.4,0-2-0.5-4c0,0,0-0.1,0-0.1c-0.2-1.2-0.6-2.3-1.1-3.4c-0.1-0.3-0.2-0.5-0.3-0.6c0,0,0-0.1,0-0.1
			c0,0,0,0,0-0.1c-0.8-1.5-1.6-2.4-1.6-2.4l0,0c-2.6-3.1-6.6-5.1-11-5.1c-8,0-14.4,6.5-14.4,14.4c0,2.1,0.5,4.1,1.3,6
			c1.5,4.4,4.8,7.8,9.6,8.3c0,0,0,0,0,0c0,0,0.2,0,0.7,0c0,0,0,0,0,0c0.2,0,0.4,0,0.7,0c0.4,0,0.8,0,1.3,0.1c0.4,0,0.8,0,1.3,0
			c1.1,0,1.9,0,2.1,0c2.4,0,3.7,0,5.2,0.2c0.3,0,0.5,0.1,0.7,0.1c0.1,0,0.1,0,0.2,0c0,0,0.1,0,0.1,0c1.2,0.2,2.3,0.6,3.4,0.9
			c0,0,0,0,0,0c0,0,0.1,0,0.1,0c2.2,0.9,3.8,1.9,4.1,2.2c0.6,0.4,1.1,0.8,2,1.6c0.8,0.7,1.4,1.3,1.9,1.7c1,1,1.8,1.7,1.9,1.9
			c0.2,0.2,0.7,0.7,1.7,1.8c1,1,1.1,1.2,1.3,1.4c0.3,0.3,0.5,0.6,0.7,0.8c0.3,0.5,0.5,0.9,0.7,1.3c0,0.1,0.1,0.2,0.1,0.3
			c1.8,4.2-1.4,5.7,0.2,12.8c1.3,5.7,5.2,9.1,9.7,10.5c1.4,0.5,3,0.7,4.5,0.7c2.1,0,4.1-0.4,5.8-1.2c3.6-1.5,6.6-4.4,7.9-8.7
			c0,0,0,0,0,0c0.4-1.4,0.7-2.9,0.7-4.4c0-3-0.9-5.7-2.4-8c-0.9-1.8-1.8-3.6-2.6-5.6c0,0,0-0.1-0.1-0.2c-0.1-0.3-0.2-0.6-0.4-1
			c0-0.1-0.1-0.2-0.1-0.2c0,0-0.1-0.2-0.1-0.4c-0.4-1.8-0.4-4.1-0.4-4.1c0.1-1.4,0.2-2.5,0.4-3.5c0.2-1,0.4-1.7,0.7-2.9
			c0.2-1,0.5-1.8,1.1-4c0.6-2.2,1-3.3,1-3.4c0,0,0.9-2.4,2.6-4.5c0.2-0.3,0.5-0.6,0.5-0.6c0.2-0.2,0.3-0.4,0.4-0.5
			c0,0,0.1-0.1,0.1-0.1c0.7-0.6,1.4-1.4,2.3-1.9c1.5-0.8,3.2-1.1,5.3-0.1c0.8,0.4,1.5,0.9,3,2.1c0.7,0.6,1.7,1.4,3.9,3.7
			c2.1,2.1,3.1,3.2,3.5,3.8c0.4,0.6,1.9,2.9,2.6,6.2c0.4,1.9,0,1.9,0.4,4.4c0.3,2.1,0.6,4,1.8,5.8c1.4,2.3,3.4,3.5,3.9,3.7
			c3.6,2,7.1,1.1,7.7,1c4.3-1.1,6.3-4.5,6.6-5.1C125.5,78.5,127.3,75.1,126.1,70.9z"/>
	</defs>
	<use xlink:href="#SVGID_1_"  style="overflow:visible;fill:#3996EA;"/>
	<clipPath id="SVGID_00000046326436006860607370000012154915729920761267_">
		<use xlink:href="#SVGID_1_"  style="overflow:visible;"/>
	</clipPath>
</g>
</svg>