<?xml version="1.0" standalone="no"?>
<!DOCTYPE svg PUBLIC "-//W3C//DTD SVG 20010904//EN"
 "http://www.w3.org/TR/2001/REC-SVG-20010904/DTD/svg10.dtd">
<svg version="1.0" xmlns="http://www.w3.org/2000/svg"
 width="240.000000pt" height="240.000000pt" viewBox="0 0 240.000000 240.000000"
 preserveAspectRatio="xMidYMid meet">
<metadata>
Created by potrace 1.14, written by Peter Selinger 2001-2017
</metadata>
<g transform="translate(0.000000,240.000000) scale(0.100000,-0.100000)"
fill="#000000" stroke="none">
<path d="M635 1879 c-250 -65 -437 -246 -511 -494 -18 -61 -26 -248 -13 -310
47 -222 179 -399 369 -495 118 -60 183 -74 325 -74 113 1 140 4 207 27 228 78
401 259 465 486 24 88 25 253 2 347 -17 68 -25 83 -53 102 -38 26 -66 28 -105
7 -48 -24 -56 -61 -36 -162 38 -189 -15 -358 -150 -481 -205 -188 -528 -169
-710 41 -81 94 -115 181 -120 307 -6 150 39 265 146 371 110 110 224 152 392
144 109 -4 141 4 162 44 28 57 -5 132 -65 147 -60 15 -236 11 -305 -7z"/>
<path d="M1458 1885 c-218 -47 -404 -197 -496 -398 -34 -74 -60 -198 -60 -286
0 -81 19 -195 39 -234 32 -63 111 -77 160 -28 34 34 35 53 13 148 -27 114 -8
245 52 363 10 19 47 64 83 100 107 106 222 151 371 145 447 -18 644 -568 311
-868 -104 -92 -237 -135 -388 -123 -103 9 -137 -5 -154 -63 -14 -46 0 -83 44
-115 25 -19 42 -21 165 -20 122 0 145 3 214 27 303 105 496 378 484 687 -2 52
-6 104 -9 115 -31 122 -66 200 -127 282 -95 125 -224 214 -375 258 -75 22
-250 27 -327 10z"/>
</g>
</svg>
